HIERARCHY
ROOT Hips
{
     OFFSET 25.41780 97.08300 1.30186
     CHANNELS 6 Xposition Yposition Zposition Zrotation Xrotation Yrotation
     JOINT Spine
     {
          OFFSET -0.00000 11.89050 -0.00000
          CHANNELS 3 Zrotation Xrotation Yrotation
          JOINT Spine1
          {
               OFFSET 0.00000 25.65740 0.12766
               CHANNELS 3 Zrotation Xrotation Yrotation
               JOINT HEad
               {
                    OFFSET 0.00000 8.73416 0.01134
                    CHANNELS 3 Zrotation Xrotation Yrotation
                    End Site
                    {
                         OFFSET -0.29000 12.77420 2.51395
                    }
               }
               JOINT LeftShoulder1
               {
                    OFFSET 8.99000 -0.36225 -0.22000
                    CHANNELS 3 Zrotation Xrotation Yrotation
                    JOINT LeftArm
                    {
                         OFFSET 10.28270 -0.00338 0.32212
                         CHANNELS 3 Zrotation Xrotation Yrotation
                         JOINT LeftForeArm
                         {
                              OFFSET 32.76690 0.09914 -1.42434
                              CHANNELS 3 Zrotation Xrotation Yrotation
                              JOINT LeftHand
                              {
                                   OFFSET 27.56430 0.08536 1.02216
                                   CHANNELS 3 Zrotation Xrotation Yrotation
                                   End Site
                                   {
                                        OFFSET 16.74430 -0.60000 1.50291
                                   }
                              }
                         }
                    }
               }
               JOINT RightShoulder
               {
                    OFFSET -8.99000 -0.36225 -0.22000
                    CHANNELS 3 Zrotation Xrotation Yrotation
                    JOINT RightArm
                    {
                         OFFSET -10.28270 -0.00338 0.32212
                         CHANNELS 3 Zrotation Xrotation Yrotation
                         JOINT RightForeArm
                         {
                              OFFSET -32.89710 0.09914 -1.42434
                              CHANNELS 3 Zrotation Xrotation Yrotation
                              JOINT RightHand
                              {
                                   OFFSET -27.49210 0.08536 1.02216
                                   CHANNELS 3 Zrotation Xrotation Yrotation
                                   End Site
                                   {
                                        OFFSET -16.63120 -0.60000 1.50291
                                   }
                              }
                         }
                    }
               }
          }
     }
     JOINT LeftUpLeg
     {
          OFFSET 8.94580 -8.66707 0.10165
          CHANNELS 3 Zrotation Xrotation Yrotation
          JOINT LeftLeg
          {
               OFFSET 0.00000 -44.42270 1.37270
               CHANNELS 3 Zrotation Xrotation Yrotation
               JOINT LeftFoot
               {
                    OFFSET -0.25355 -42.09240 -1.46059
                    CHANNELS 3 Zrotation Xrotation Yrotation
                    JOINT LeftToes
                    {
                         OFFSET -0.04000 -4.41509 8.49910
                         CHANNELS 3 Zrotation Xrotation Yrotation
                         End Site
                         {
                              OFFSET 0.08000 -0.04745 9.77979
                         }
                    }
               }
          }
     }
     JOINT RightUpLeg
     {
          OFFSET -8.94580 -8.66707 0.10165
          CHANNELS 3 Zrotation Xrotation Yrotation
          JOINT RightLeg
          {
               OFFSET 0.00000 -44.42270 1.37270
               CHANNELS 3 Zrotation Xrotation Yrotation
               JOINT RightFoot
               {
                    OFFSET 0.25355 -42.09240 -1.46059
                    CHANNELS 3 Zrotation Xrotation Yrotation
                    JOINT RightToes
                    {
                         OFFSET 0.04000 -4.41509 8.49910
                         CHANNELS 3 Zrotation Xrotation Yrotation
                         End Site
                         {
                              OFFSET -0.08000 -0.13745 9.77979
                         }
                    }
               }
          }
     }
}
MOTION
Frames: 15
Frame Time: 0.01667
11.47340 95.18950 -15.16120 10.80760 -6.71407 31.64960 -7.95221 10.35440 0.76973 -3.79616 20.98000 -0.66494 1.74005 -15.85460 30.47540 -0.00000 -0.00000 0.00000 -161.52400 -80.75380 -124.65800 -52.03310 62.41240 -68.00410 21.12540 6.11797 -16.65360 16.25100 0.60197 0.67405 82.98580 -3.12441 70.64110 15.71100 33.21690 97.56160 18.73420 11.97270 7.93644 19.66070 0.56282 -16.79360 -32.34230 17.57120 88.51390 -12.03550 -1.69523 0.62445 9.40999 -4.25358 -52.44370 -24.98090 10.94320 6.50957 45.05480 -1.82997 -61.15640 -37.16640 -7.07962 0.02912 5.33125 -38.29310 9.48401 
11.31950 95.05950 -15.37040 10.67020 -6.10630 35.18980 -7.25087 10.08240 0.42752 -3.43866 20.37770 -1.07139 1.78497 -15.18620 29.88930 -0.00000 -0.00000 0.00000 -153.21800 -80.28740 -116.98800 -50.78930 61.52430 -69.32220 20.61190 6.31285 -16.11340 16.28840 0.62020 0.76669 82.45340 -3.49780 70.47520 16.03120 33.23080 97.59980 18.21570 11.94430 8.10380 20.30920 -0.63228 -17.77830 -33.78050 17.47080 90.47280 -13.39330 -3.13671 0.53584 10.27450 0.03642 -51.72340 -24.61690 11.15550 5.00074 45.18830 -1.82572 -63.10500 -38.14890 -6.83990 0.12003 5.19879 -39.70550 7.74634 
11.12970 94.95600 -15.48830 11.00670 -5.69957 38.13390 -7.67095 10.35300 0.26285 -3.47022 20.93010 -1.58716 0.81817 -15.23230 29.74440 -0.00000 -0.00000 0.00000 -152.22501 -79.28160 -117.00000 -48.36330 61.13730 -71.58380 20.92980 6.27909 -15.97690 14.60990 0.87277 2.45254 84.76330 -4.23068 71.71850 16.11180 33.57290 97.33470 18.74550 11.93380 7.70046 20.37390 -0.72027 -16.72560 -33.79740 17.46690 90.31710 -12.97250 -3.07513 0.52560 9.97221 -0.23502 -50.54070 -24.79490 11.32600 4.97154 45.69210 -1.75631 -64.81480 -36.97560 -7.64945 -0.16827 4.61780 -38.35070 6.19054 
10.88850 94.91080 -15.69460 11.40430 -5.46127 41.21220 -7.78999 10.22650 0.60909 -3.52305 20.63640 -0.90656 1.32544 -14.95810 28.15170 -0.00000 -0.00000 0.00000 -147.89000 -78.72840 -113.00100 -50.87770 61.16010 -69.50130 20.48840 6.39970 -15.75530 15.88880 0.55859 0.48243 83.24150 -3.24466 71.10930 16.34520 33.34630 97.60340 18.49400 11.86370 7.44095 20.24700 -1.04732 -16.06130 -33.68040 17.82990 91.26770 -13.73300 -2.65040 0.60502 10.12510 0.66056 -50.34230 -24.91020 11.74060 4.78925 46.07500 -1.69243 -66.42760 -36.34470 -8.46275 -0.44393 4.12689 -36.63390 5.09261 
10.70470 94.72670 -15.76700 11.72270 -4.72737 44.02720 -8.52652 10.27150 0.73868 -3.68477 20.72680 -0.84271 1.26484 -15.80370 27.91090 -0.00000 -0.00000 0.00000 -151.45000 -77.93040 -117.33400 -50.69780 61.97800 -69.53010 21.00000 6.24904 -16.07030 16.21250 0.58820 0.60508 83.66230 -3.70875 72.08570 17.06030 33.96900 96.82870 18.78730 11.92940 7.64834 20.07830 -1.47032 -14.05900 -33.62470 18.27580 90.25600 -13.69230 -1.91144 0.68729 9.89395 -0.35366 -50.28070 -25.32510 11.56330 4.99356 46.34300 -1.58659 -69.31410 -37.05440 -8.60652 -0.49931 4.44215 -38.87930 5.03386 
10.66250 94.66270 -16.02090 11.72780 -4.05456 47.15670 -8.28823 10.21220 0.56461 -3.95842 20.54940 -0.95122 1.44300 -15.19460 27.12130 -0.00000 -0.00000 0.00000 -145.87801 -77.33400 -112.63600 -48.46750 61.06040 -71.45180 20.69670 6.30227 -16.08530 15.85340 0.74720 1.51170 83.85350 -3.96667 72.23910 16.10820 33.38210 97.46440 18.83810 12.08530 8.52995 19.53640 -2.46010 -14.78740 -33.57670 17.73300 90.45980 -13.80420 -2.66683 0.60630 9.87684 1.72162 -48.16630 -25.59440 11.59470 4.68257 46.63530 -1.56152 -69.84450 -36.65560 -8.43165 -0.43574 3.84430 -38.76770 2.42179 
10.69980 94.55880 -16.30660 11.62480 -3.93556 50.13880 -7.58310 10.23410 0.57824 -3.69974 20.51780 -0.71338 0.95227 -15.71340 25.68780 -0.00000 -0.00000 0.00000 -140.96400 -76.44570 -108.22100 -47.03250 60.67970 -72.54590 20.94750 6.22628 -16.24740 15.14990 0.67233 1.20826 83.87030 -3.50145 72.32330 16.27010 33.22810 97.59580 18.07730 11.95410 8.25592 19.52240 -3.12137 -14.89400 -33.38000 17.57030 90.98730 -12.98080 -1.37340 0.70884 9.58266 -1.76068 -50.24230 -25.34450 12.05000 4.30460 46.88460 -1.53630 -70.40590 -36.53940 -9.30271 -0.73228 3.39400 -36.96280 1.24998 
10.74060 94.44340 -16.55980 11.38290 -3.83474 52.97980 -7.24878 10.28620 0.69687 -3.60950 20.56330 -0.34909 0.55159 -15.72380 24.17980 -0.00000 -0.00000 0.00000 -149.83600 -75.26670 -117.16400 -51.10130 62.49030 -68.27300 21.10130 6.18903 -16.29400 15.50570 0.61938 0.86219 83.65210 -3.32390 72.72390 16.08610 32.96640 97.53830 18.10760 12.05450 8.84629 19.61780 -3.75305 -14.65290 -33.31560 17.34000 90.37910 -12.99040 -0.96720 0.75300 9.16028 -3.21224 -49.63170 -25.21380 12.06720 4.81301 47.42820 -1.48994 -71.37750 -34.96360 -10.42590 -1.07409 3.06249 -34.13900 1.02062 
10.78610 94.47990 -16.91720 11.22670 -3.52119 55.83240 -6.91114 10.26940 0.77267 -3.69273 20.48200 0.00128 0.49232 -15.11870 22.64280 -0.00000 -0.00000 0.00000 -153.11000 -74.14190 -120.26800 -55.22210 62.89990 -64.74430 20.82550 6.25545 -16.21200 15.83230 0.63709 0.91600 83.59930 -3.65293 72.94530 16.12820 33.13790 97.87720 18.32720 11.99930 8.36131 19.33740 -4.09789 -14.35720 -32.91980 16.29990 88.73520 -12.31270 -0.96140 0.71351 8.76390 -4.33235 -48.67650 -25.07220 12.00090 5.00482 47.27670 -1.42549 -73.31870 -33.47170 -10.62980 -1.09782 3.13759 -33.26040 2.01047 
10.95460 94.43390 -17.24560 11.36140 -3.25485 59.01770 -6.58343 10.27860 0.73907 -3.41951 20.44520 -0.02889 0.12999 -14.94070 20.82490 -0.00000 -0.00000 0.00000 -150.88901 -73.73930 -118.28600 -53.14820 62.86610 -66.04990 20.61730 6.22615 -16.58900 15.41540 0.53550 0.40811 84.07410 -3.32884 73.12180 16.47420 33.06410 97.72320 19.22920 12.03780 8.00271 18.49040 -4.45503 -14.03590 -31.76160 16.04990 87.80630 -11.83620 -1.19462 0.66265 8.85874 -5.35702 -50.62160 -25.28690 12.85500 4.32818 47.72760 -1.44330 -72.51380 -33.14030 -11.09630 -1.23288 2.24570 -30.26630 -2.24920 
11.14850 94.31910 -17.65850 11.12130 -3.54492 61.45500 -5.46634 10.24200 0.74765 -3.20570 20.35220 0.31044 -0.10081 -14.76440 19.61880 -0.00000 -0.00000 0.00000 -145.82899 -72.86800 -113.17700 -50.15090 62.67140 -68.94410 21.68320 6.14359 -15.96070 15.07570 0.70382 1.39756 84.35420 -4.61337 73.33300 16.67550 33.50940 97.84460 18.58060 11.92930 7.77738 18.58480 -5.03966 -13.91130 -31.31860 16.22740 86.15580 -13.10970 -2.27291 0.61837 9.02711 -2.71720 -48.30770 -24.72220 13.07910 4.74655 47.82990 -1.42876 -72.86140 -32.97860 -11.79700 -1.44398 1.85544 -26.70930 -3.92939 
11.48350 94.13950 -18.17740 10.76380 -4.07663 64.94670 -3.11522 10.19740 0.37395 -2.83581 20.31050 0.26514 0.57091 -14.89570 17.80750 -0.00000 -0.00000 0.00000 -147.50600 -71.67710 -114.72400 -52.51130 62.94870 -66.20020 21.17350 6.16418 -16.35530 15.20620 0.75282 1.65155 84.07010 -5.16342 73.47870 15.74730 32.91750 98.39170 18.59740 12.07220 8.61388 18.60090 -6.70276 -15.44370 -30.96610 17.05500 86.36440 -11.55040 -2.13067 0.55760 8.68457 -4.66792 -48.61110 -23.97080 13.83510 4.21350 48.13380 -1.40146 -73.43870 -32.54100 -11.82910 -1.43631 1.60442 -24.91610 -6.01644 
11.57920 94.53980 -18.35290 11.02070 -3.14642 67.26380 -4.72209 10.26070 0.87534 -3.36248 20.34090 0.90740 0.91692 -14.81850 15.93520 -0.00000 -0.00000 0.00000 -147.70500 -70.43650 -114.82400 -52.25560 63.83800 -65.91870 21.40230 6.17546 -16.06640 16.10220 0.73231 1.39192 84.05390 -5.88093 73.60210 16.92250 33.56000 97.64130 18.35490 12.18300 9.44509 17.59170 -5.88871 -14.20510 -29.48530 15.10360 83.95370 -8.45694 0.05992 0.55512 7.85900 -10.03980 -51.10570 -24.94490 14.04400 4.81166 48.29660 -1.39090 -73.63170 -30.84560 -11.85590 -1.37618 1.53225 -21.82960 -5.89049 
11.57510 94.71840 -18.50890 11.37690 -2.10509 70.29500 -6.26568 10.31320 1.05504 -3.48968 20.33180 0.77741 1.66595 -14.59930 14.04630 -0.00000 -0.00000 0.00000 -144.77400 -69.69160 -111.85700 -51.67840 63.31170 -66.26320 21.52800 6.09172 -16.38700 15.85210 0.89683 2.32509 85.05240 -7.02808 73.56920 17.55390 34.27520 98.05190 19.30500 11.91920 7.27689 16.56880 -5.52617 -12.65780 -28.28600 13.91140 80.94790 -5.26339 1.76891 0.40696 7.13122 -14.36810 -54.95500 -26.06970 14.39980 5.21164 48.77020 -1.35037 -74.47020 -31.12930 -10.79910 -1.08007 1.47277 -22.26600 -7.16851 
11.74760 94.98030 -18.83800 11.58110 -1.93417 72.78770 -5.91178 10.55790 1.20375 -3.54370 20.79150 1.22538 2.17514 -15.13060 11.35070 -0.00000 -0.00000 0.00000 -127.95200 -67.13110 -97.05470 -43.56370 58.44260 -73.26680 21.09210 6.18459 -16.32740 15.84380 0.56576 0.52647 85.59430 -6.05492 74.32180 16.46300 34.33220 98.50250 18.27350 11.95910 8.15516 16.47830 -4.90814 -11.47120 -27.46020 12.76390 78.73670 -3.33315 4.69782 0.31500 5.58539 -20.11320 -57.95540 -26.23460 14.85440 6.19913 48.56150 -1.31178 -75.70740 -32.51790 -9.13094 -0.61610 1.52839 -23.59070 -6.63426 
